<?xml version="1.0"?>
<svg xmlns="http://www.w3.org/2000/svg" xmlns:xlink="http://www.w3.org/1999/xlink" xmlns:svgjs="http://svgjs.com/svgjs" version="1.1" width="512" height="512" x="0" y="0" viewBox="0 0 512 512" style="enable-background:new 0 0 512 512" xml:space="preserve" class=""><g>
<g xmlns="http://www.w3.org/2000/svg">
	<g>
		<path d="M256,0C155.108,0,73.026,82.082,73.026,182.974c0,56.472,29.101,128.364,86.484,213.684    c42.073,62.553,83.498,108.431,85.249,110.353C247.632,510.189,251.72,512,256,512c4.28,0,8.368-1.811,11.242-4.988    c1.75-1.923,43.176-47.8,85.249-110.353c57.382-85.32,86.484-157.212,86.484-213.684C438.974,82.082,356.892,0,256,0z     M256,271.623c-47.426,0-86.008-38.582-86.008-86.008S208.574,99.607,256,99.607s86.008,38.582,86.008,86.008    S303.426,271.623,256,271.623z" fill="#0d6efd" data-original="#000000" style="" class=""/>
	</g>
</g>
<g xmlns="http://www.w3.org/2000/svg">
	<g>
		<path d="M256.001,220.784c-7.939,0-15.545,6.981-15.178,15.178c0.368,8.223,6.669,15.178,15.178,15.178    c7.939,0,15.545-6.981,15.178-15.178C270.811,227.739,264.51,220.784,256.001,220.784z" fill="#0d6efd" data-original="#000000" style="" class=""/>
	</g>
</g>
<g xmlns="http://www.w3.org/2000/svg">
	<g>
		<path d="M256,120.08c-22.082,0-40.046,17.965-40.046,40.046c0,8.383,6.796,15.179,15.178,15.179s15.178-6.796,15.178-15.178    c0-5.344,4.347-9.691,9.691-9.691c5.344,0,9.691,4.347,9.691,9.691s-4.347,9.691-9.691,9.691c-8.382,0-15.178,6.796-15.178,15.178    v14.843c0,8.382,6.796,15.178,15.178,15.178c8.382,0,15.178-6.796,15.178-15.178v-2.653c14.577-5.992,24.868-20.346,24.868-37.059    C296.046,138.045,278.082,120.08,256,120.08z" fill="#0d6efd" data-original="#000000" style="" class=""/>
	</g>
</g>
<g xmlns="http://www.w3.org/2000/svg">
</g>
<g xmlns="http://www.w3.org/2000/svg">
</g>
<g xmlns="http://www.w3.org/2000/svg">
</g>
<g xmlns="http://www.w3.org/2000/svg">
</g>
<g xmlns="http://www.w3.org/2000/svg">
</g>
<g xmlns="http://www.w3.org/2000/svg">
</g>
<g xmlns="http://www.w3.org/2000/svg">
</g>
<g xmlns="http://www.w3.org/2000/svg">
</g>
<g xmlns="http://www.w3.org/2000/svg">
</g>
<g xmlns="http://www.w3.org/2000/svg">
</g>
<g xmlns="http://www.w3.org/2000/svg">
</g>
<g xmlns="http://www.w3.org/2000/svg">
</g>
<g xmlns="http://www.w3.org/2000/svg">
</g>
<g xmlns="http://www.w3.org/2000/svg">
</g>
<g xmlns="http://www.w3.org/2000/svg">
</g>
</g></svg>
